<svg width="403" height="884" viewBox="0 0 403 884" fill="none" xmlns="http://www.w3.org/2000/svg">
<g opacity="0.5">
<path opacity="0.0344828" d="M-349.952 678.149C-345.831 683.06 -339.611 686.115 -331.407 687.346C-323.195 688.577 -313.059 687.969 -301.225 685.604C-277.559 680.874 -247.314 669.16 -212.53 651.464C-142.977 616.081 -55.4789 556.886 33.4587 482.258C122.396 407.631 195.886 331.741 242.81 269.389C266.276 238.206 283.065 210.454 291.832 187.969C296.217 176.726 298.576 166.85 298.789 158.549C299.001 150.256 297.073 143.6 292.952 138.688C288.831 133.777 282.611 130.722 274.407 129.492C266.195 128.26 256.059 128.869 244.226 131.234C220.56 135.964 190.314 147.678 155.53 165.373C85.9774 200.757 -1.52074 259.952 -90.4584 334.579C-179.396 409.207 -252.886 485.097 -299.809 547.449C-323.276 578.631 -340.064 606.383 -348.832 628.868C-353.216 640.111 -355.575 649.988 -355.788 658.289C-356.001 666.582 -354.073 673.238 -349.952 678.149Z" stroke="#2B2C3B" stroke-width="2"/>
<path opacity="0.0689655" d="M-325.22 708.496C-320.687 713.03 -314.224 715.531 -305.944 716.041C-297.656 716.553 -287.612 715.063 -276.029 711.676C-252.866 704.901 -223.756 690.595 -190.647 669.936C-124.443 628.625 -42.4367 562.029 39.6583 479.934C121.753 397.839 188.349 315.833 229.66 249.629C250.32 216.519 264.625 187.41 271.4 164.246C274.787 152.664 276.277 142.619 275.765 134.331C275.255 126.052 272.754 119.589 268.22 115.055C263.687 110.522 257.224 108.021 248.944 107.51C240.656 106.999 230.612 108.488 219.029 111.876C195.866 118.651 166.756 132.956 133.647 153.616C67.4426 194.927 -14.5633 261.522 -96.6584 343.617C-178.753 425.713 -245.349 507.718 -286.66 573.923C-307.32 607.032 -321.625 636.142 -328.4 659.305C-331.788 670.887 -333.277 680.932 -332.766 689.22C-332.255 697.5 -329.754 703.963 -325.22 708.496Z" stroke="#2B2C3B" stroke-width="2"/>
<path opacity="0.103448" d="M-298.23 736.587C-293.319 740.708 -286.663 742.636 -278.37 742.423C-270.069 742.21 -260.192 739.851 -248.949 735.467C-226.464 726.699 -198.713 709.911 -167.53 686.444C-105.178 639.52 -29.2881 566.031 45.3394 477.093C119.967 388.155 179.162 300.657 214.545 231.104C232.241 196.32 243.955 166.075 248.685 142.409C251.05 130.576 251.659 120.439 250.427 112.227C249.196 104.024 246.142 97.8033 241.23 93.6823C236.319 89.5613 229.663 87.6331 221.37 87.8459C213.069 88.0589 203.192 90.418 191.949 94.8021C169.465 103.57 141.713 120.358 110.53 143.825C48.178 190.749 -27.7117 264.238 -102.339 353.176C-176.967 442.114 -236.162 529.612 -271.545 599.165C-289.241 633.948 -300.955 664.194 -305.685 687.86C-308.05 699.693 -308.658 709.83 -307.427 718.042C-306.196 726.245 -303.142 732.466 -298.23 736.587Z" stroke="#2B2C3B" stroke-width="2"/>
<path opacity="0.137931" d="M-269.188 762.23C-263.936 765.908 -257.137 767.248 -248.894 766.314C-240.644 765.378 -231.01 762.167 -220.192 756.82C-198.557 746.125 -172.374 726.982 -143.355 700.887C-85.3298 648.708 -16.1339 568.884 50.4583 473.78C117.05 378.677 168.394 286.352 197.581 213.98C212.178 177.786 221.211 146.635 223.861 122.647C225.185 110.653 224.908 100.502 222.965 92.4283C221.024 84.3632 217.439 78.4327 212.187 74.7555C206.936 71.0782 200.137 69.7375 191.894 70.6722C183.643 71.6079 174.01 74.8188 163.192 80.1662C141.556 90.8604 115.373 110.003 86.3546 136.099C28.3295 188.278 -40.8664 268.102 -107.459 363.206C-174.051 458.309 -225.395 550.633 -254.581 623.006C-269.178 659.199 -278.211 690.351 -280.861 714.339C-282.186 726.333 -281.908 736.484 -279.965 744.557C-278.025 752.623 -274.439 758.553 -269.188 762.23Z" stroke="#2B2C3B" stroke-width="2"/>
<path opacity="0.172414" d="M-238.313 785.258C-232.761 788.463 -225.871 789.206 -217.741 787.557C-209.603 785.905 -200.286 781.867 -189.975 775.597C-169.354 763.058 -144.939 741.706 -118.305 713.181C-65.0489 656.143 -3.07343 570.591 54.9765 470.046C113.026 369.501 156.128 273.053 178.896 198.412C190.283 161.084 196.567 129.264 197.116 105.136C197.39 93.0717 196.229 82.9836 193.59 75.1103C190.954 67.245 186.865 61.6496 181.313 58.4441C175.761 55.2385 168.871 54.4954 160.741 56.145C152.603 57.7962 143.286 61.8346 132.975 68.1044C112.354 80.6436 87.9393 101.996 61.3054 130.521C8.04878 187.559 -53.9267 273.11 -111.977 373.656C-170.027 474.201 -213.128 570.649 -235.896 645.29C-247.283 682.618 -253.567 714.438 -254.116 738.566C-254.39 750.63 -253.229 760.718 -250.59 768.591C-247.954 776.457 -243.865 782.052 -238.313 785.258Z" stroke="#2B2C3B" stroke-width="2"/>
<path opacity="0.206897" d="M-205.842 805.519C-200.031 808.229 -193.103 808.369 -185.148 806.017C-177.184 803.663 -168.255 798.828 -158.53 791.683C-139.08 777.394 -116.619 753.995 -92.5726 723.258C-44.4898 661.795 9.79351 571.168 58.8594 465.946C107.925 360.723 142.457 260.886 158.633 184.545C166.723 146.366 170.21 114.12 168.654 90.0359C167.876 77.9935 165.84 68.0451 162.524 60.4318C159.213 52.8261 154.652 47.6084 148.842 44.8989C143.031 42.1894 136.103 42.0497 128.148 44.4016C120.185 46.7558 111.255 51.5908 101.53 58.7355C82.0803 73.0241 59.6191 96.4229 35.5727 127.161C-12.5101 188.623 -66.7934 279.251 -115.859 384.473C-164.925 489.695 -199.457 589.533 -215.633 665.873C-223.723 704.052 -227.21 736.299 -225.654 760.382C-224.876 772.425 -222.84 782.373 -219.524 789.987C-216.213 797.592 -211.652 802.81 -205.842 805.519Z" stroke="#2B2C3B" stroke-width="2"/>
<path opacity="0.241379" d="M-172.021 822.888C-165.996 825.081 -159.082 824.616 -151.362 821.58C-143.634 818.541 -135.16 812.946 -126.095 804.981C-107.965 789.051 -87.6283 763.784 -66.3523 731.067C-23.8093 665.648 22.3687 570.634 62.0772 461.536C101.786 352.438 127.485 249.971 136.946 172.51C141.677 133.772 142.34 101.344 138.691 77.4877C136.866 65.5589 133.971 55.8258 130.005 48.5304C126.043 41.2423 121.045 36.4419 115.02 34.2492C108.996 32.0564 102.082 32.5211 94.3618 35.5573C86.6342 38.5966 78.1599 44.1915 69.0944 52.1566C50.9643 68.086 30.628 93.3534 9.35203 126.07C-33.1909 191.489 -79.369 286.503 -119.078 395.601C-158.786 504.699 -184.485 607.167 -193.946 684.627C-198.678 723.365 -199.341 755.793 -195.691 779.65C-193.867 791.578 -190.971 801.311 -187.005 808.607C-183.043 815.895 -178.045 820.695 -172.021 822.888Z" stroke="#2B2C3B" stroke-width="2"/>
<path opacity="0.275862" d="M-137.107 837.252C-130.915 838.912 -124.067 837.846 -116.641 834.149C-109.208 830.447 -101.254 824.135 -92.9169 815.41C-76.2441 797.961 -58.1873 771.018 -39.8438 736.571C-3.16437 667.693 34.557 569.016 64.6059 456.872C94.6548 344.729 111.325 240.411 113.999 162.421C115.337 123.418 113.171 91.0558 107.456 67.6082C104.599 55.8838 100.866 46.4401 96.2793 39.5181C91.6971 32.6031 86.2998 28.2566 80.1071 26.5972C73.9144 24.9379 67.0669 26.0034 59.6411 29.7009C52.2078 33.4022 44.2534 39.7144 35.9166 48.4392C19.2438 65.8881 1.18707 92.8318 -17.1565 127.278C-53.8359 196.157 -91.5573 294.833 -121.606 406.977C-151.655 519.121 -168.326 623.438 -171 701.428C-172.337 740.432 -170.171 772.794 -164.456 796.241C-161.599 807.966 -157.866 817.409 -153.28 824.331C-148.697 831.246 -143.3 835.593 -137.107 837.252Z" stroke="#2B2C3B" stroke-width="2"/>
<path opacity="0.310345" d="M-101.367 848.534C-95.0535 849.647 -88.3249 847.989 -81.2496 843.658C-74.1672 839.323 -66.7932 832.342 -59.2486 822.924C-44.16 804.088 -28.5203 775.673 -13.2487 739.759C17.2879 667.946 46.2656 566.357 66.4261 452.021C86.5866 337.685 94.102 232.312 89.9684 154.385C87.9012 115.414 82.9231 83.3637 75.1867 60.5033C71.3183 49.0727 66.7768 39.9902 61.6042 33.4943C56.4367 27.005 50.6811 23.1454 44.3673 22.0321C38.0536 20.9188 31.325 22.5771 24.2497 26.9077C17.1673 31.2427 9.7933 38.2242 2.2487 47.6424C-12.8399 66.4781 -28.4796 94.893 -43.7512 130.807C-74.2878 202.62 -103.265 304.209 -123.426 418.545C-143.587 532.881 -151.102 638.254 -146.968 716.181C-144.901 755.152 -139.923 787.202 -132.187 810.063C-128.318 821.493 -123.777 830.576 -118.604 837.072C-113.437 843.561 -107.681 847.421 -101.367 848.534Z" stroke="#2B2C3B" stroke-width="2"/>
<path opacity="0.344828" d="M-65.0727 856.67C-58.6859 857.229 -52.1275 854.991 -45.4566 850.06C-38.7789 845.124 -32.0414 837.527 -25.3464 827.487C-11.9569 807.408 1.14683 777.738 13.2301 740.629C37.3917 666.428 57.405 562.7 67.5238 447.042C77.6425 331.384 75.9454 225.757 65.0358 148.487C59.5799 109.844 51.8274 78.3499 42.128 56.2508C37.2781 45.2008 31.9623 36.5487 26.2432 30.5284C20.5298 24.5141 14.4597 21.1708 8.07294 20.6121C1.6862 20.0533 -4.87228 22.2917 -11.5432 27.2225C-18.2209 32.1583 -24.9583 39.7559 -31.6533 49.7958C-45.0428 69.8748 -58.1466 99.5447 -70.2299 136.653C-94.3914 210.854 -114.405 314.582 -124.524 430.24C-134.642 545.898 -132.945 651.525 -122.036 728.795C-116.58 767.438 -108.827 798.933 -99.1277 821.032C-94.2778 832.082 -88.962 840.734 -83.2429 846.754C-77.5296 852.768 -71.4594 856.112 -65.0727 856.67Z" stroke="#2B2C3B" stroke-width="2"/>
<path opacity="0.37931" d="M-28.4998 861.627C-22.0887 861.627 -15.7503 858.825 -9.53448 853.332C-3.31241 847.833 2.73723 839.677 8.53175 829.092C20.1203 807.922 30.5883 777.223 39.3914 739.203C56.9939 663.178 67.8906 558.101 67.8906 442.001C67.8906 325.901 56.9939 220.824 39.3914 144.799C30.5883 106.778 20.1203 76.0794 8.53175 54.9098C2.73723 44.3245 -3.31241 36.1687 -9.53448 30.6697C-15.7503 25.1762 -22.0887 22.3748 -28.4998 22.3748C-34.911 22.3748 -41.2494 25.1762 -47.4652 30.6697C-53.6872 36.1687 -59.7369 44.3245 -65.5314 54.9098C-77.12 76.0794 -87.5879 106.778 -96.391 144.799C-113.994 220.824 -124.89 325.901 -124.89 442.001C-124.89 558.101 -113.994 663.178 -96.391 739.203C-87.5879 777.223 -77.12 807.922 -65.5314 829.092C-59.7369 839.677 -53.6872 847.833 -47.4652 853.332C-41.2494 858.825 -34.911 861.627 -28.4998 861.627Z" stroke="#2B2C3B" stroke-width="2"/>
<path opacity="0.413793" d="M8.07305 863.389C14.4598 862.83 20.5299 859.487 26.2433 853.473C31.9624 847.452 37.2782 838.8 42.1281 827.75C51.8275 805.651 59.58 774.157 65.036 735.514C75.9455 658.244 77.6427 552.617 67.5239 436.959C57.4051 321.301 37.3918 217.573 13.2303 143.372C1.14694 106.263 -11.9568 76.5935 -25.3463 56.5145C-32.0413 46.4745 -38.7788 38.877 -45.4564 33.9412C-52.1274 29.0104 -58.6858 26.772 -65.0726 27.3308C-71.4593 27.8895 -77.5295 31.2328 -83.2428 37.2471C-88.9619 43.2674 -94.2777 51.9195 -99.1276 62.9695C-108.827 85.0686 -116.58 116.563 -122.035 155.206C-132.945 232.476 -134.642 338.103 -124.523 453.761C-114.405 569.419 -94.3913 673.147 -70.2298 747.348C-58.1465 784.456 -45.0427 814.126 -31.6532 834.205C-24.9582 844.245 -18.2207 851.843 -11.5431 856.779C-4.87217 861.709 1.68631 863.948 8.07305 863.389Z" stroke="#2B2C3B" stroke-width="2"/>
<path opacity="0.448276" d="M44.3677 861.969C50.6814 860.856 56.4371 856.996 61.6045 850.507C66.7771 844.011 71.3186 834.929 75.187 823.498C82.9234 800.638 87.9015 768.587 89.9687 729.616C94.1023 651.69 86.587 546.316 66.4264 431.98C46.2659 317.644 17.2883 216.056 -13.2484 144.243C-28.5199 108.328 -44.1597 79.9135 -59.2483 61.0778C-66.7929 51.6596 -74.1669 44.6782 -81.2493 40.3432C-88.3246 36.0125 -95.0532 34.3543 -101.367 35.4675C-107.681 36.5808 -113.436 40.4404 -118.604 46.9298C-123.776 53.4257 -128.318 62.5081 -132.186 73.9388C-139.923 96.7991 -144.901 128.849 -146.968 167.821C-151.102 245.747 -143.586 351.12 -123.426 465.456C-103.265 579.793 -74.2875 681.381 -43.7508 753.194C-28.4793 789.108 -12.8395 817.523 2.24903 836.359C9.79363 845.777 17.1676 852.759 24.2501 857.094C31.3253 861.424 38.0539 863.083 44.3677 861.969Z" stroke="#2B2C3B" stroke-width="2"/>
<path opacity="0.482759" d="M80.1074 857.403C86.3001 855.743 91.6975 851.397 96.2796 844.482C100.866 837.56 104.599 828.116 107.456 816.392C113.171 792.944 115.337 760.582 114 721.579C111.326 643.589 94.6551 539.271 64.6062 427.128C34.5574 314.984 -3.16403 216.307 -39.8434 147.429C-58.187 112.982 -76.2437 86.0385 -92.9165 68.5896C-101.253 59.8648 -109.208 53.5526 -116.641 49.8513C-124.067 46.1538 -130.914 45.0883 -137.107 46.7476C-143.3 48.407 -148.697 52.7535 -153.279 59.6685C-157.866 66.5905 -161.599 76.0343 -164.456 87.7586C-170.171 111.206 -172.336 143.568 -170.999 182.572C-168.325 260.562 -151.655 364.879 -121.606 477.023C-91.5569 589.167 -53.8355 687.843 -17.1561 756.722C1.18741 791.168 19.2442 818.112 35.917 835.561C44.2537 844.286 52.2081 850.598 59.6414 854.299C67.0672 857.997 73.9147 859.062 80.1074 857.403Z" stroke="#2B2C3B" stroke-width="2"/>
<path opacity="0.517241" d="M115.021 849.754C121.045 847.561 126.043 842.76 130.005 835.472C133.971 828.177 136.867 818.444 138.691 806.515C142.341 782.659 141.678 750.231 136.946 711.492C127.485 634.032 101.786 531.565 62.0776 422.467C22.3691 313.368 -23.809 218.355 -66.3519 152.936C-87.6279 120.219 -107.964 94.9515 -126.094 79.0221C-135.16 71.0571 -143.634 65.4621 -151.362 62.4229C-159.081 59.3866 -165.996 58.922 -172.02 61.1147C-178.045 63.3074 -183.043 68.1078 -187.005 75.3959C-190.971 82.6913 -193.866 92.4245 -195.691 104.353C-199.34 128.21 -198.677 160.638 -193.946 199.376C-184.485 276.836 -158.786 379.303 -119.077 488.402C-79.3687 597.5 -33.1906 692.513 9.35239 757.933C30.6284 790.649 50.9647 815.917 69.0948 831.846C78.1603 839.811 86.6345 845.406 94.3621 848.445C102.082 851.482 108.996 851.946 115.021 849.754Z" stroke="#2B2C3B" stroke-width="2"/>
<path opacity="0.551724" d="M148.841 839.102C154.652 836.392 159.213 831.175 162.524 823.569C165.839 815.956 167.875 806.007 168.654 793.965C170.21 769.881 166.723 737.634 158.633 699.456C142.457 623.115 107.925 523.277 58.8593 418.055C9.79335 312.833 -44.49 222.206 -92.5727 160.743C-116.619 130.005 -139.08 106.607 -158.53 92.3179C-168.255 85.1733 -177.185 80.3382 -185.148 77.984C-193.103 75.6322 -200.031 75.7719 -205.842 78.4813C-211.652 81.1908 -216.213 86.4086 -219.525 94.0142C-222.84 101.628 -224.876 111.576 -225.654 123.618C-227.21 147.702 -223.723 179.949 -215.633 218.127C-199.457 294.468 -164.925 394.306 -115.86 499.528C-66.7936 604.75 -12.5102 695.377 35.5725 756.84C59.6189 787.578 82.0801 810.977 101.53 825.265C111.255 832.41 120.184 837.245 128.147 839.599C136.102 841.951 143.031 841.811 148.841 839.102Z" stroke="#2B2C3B" stroke-width="2"/>
<path opacity="0.586207" d="M181.313 825.557C186.865 822.351 190.954 816.756 193.59 808.891C196.229 801.017 197.39 790.929 197.116 778.865C196.567 754.737 190.283 722.917 178.897 685.589C156.129 610.948 113.027 514.5 54.9767 413.955C-3.07323 313.41 -65.0487 227.858 -118.305 170.82C-144.939 142.295 -169.354 120.943 -189.975 108.404C-200.286 102.134 -209.603 98.0957 -217.741 96.4444C-225.871 94.7949 -232.761 95.5379 -238.313 98.7435C-243.865 101.949 -247.954 107.544 -250.59 115.41C-253.229 123.283 -254.39 133.371 -254.116 145.435C-253.567 169.563 -247.283 201.383 -235.896 238.711C-213.128 313.352 -170.026 409.8 -111.976 510.345C-53.9265 610.891 8.04899 696.442 61.3056 753.48C87.9395 782.005 112.355 803.357 132.975 815.897C143.286 822.166 152.603 826.205 160.741 827.856C168.871 829.506 175.761 828.763 181.313 825.557Z" stroke="#2B2C3B" stroke-width="2"/>
<path opacity="0.62069" d="M212.187 809.245C217.439 805.568 221.024 799.638 222.965 791.572C224.908 783.499 225.185 773.348 223.861 761.354C221.211 737.366 212.178 706.214 197.581 670.021C168.394 597.648 117.05 505.324 50.4583 410.221C-16.1339 315.117 -85.3297 235.293 -143.355 183.114C-172.374 157.018 -198.557 137.875 -220.192 127.181C-231.01 121.834 -240.643 118.623 -248.894 117.687C-257.137 116.752 -263.936 118.093 -269.188 121.77C-274.439 125.448 -278.025 131.378 -279.965 139.443C-281.908 147.517 -282.186 157.667 -280.861 169.662C-278.211 193.65 -269.178 224.801 -254.581 260.995C-225.394 333.367 -174.051 425.692 -107.459 520.795C-40.8664 615.899 28.3295 695.723 86.3547 747.902C115.373 773.997 141.556 793.14 163.192 803.835C174.01 809.182 183.643 812.393 191.894 813.329C200.137 814.263 206.936 812.923 212.187 809.245Z" stroke="#2B2C3B" stroke-width="2"/>
<path opacity="0.655172" d="M241.23 790.319C246.142 786.198 249.196 779.978 250.427 771.774C251.659 763.562 251.05 753.426 248.685 741.593C243.955 717.927 232.241 687.681 214.545 652.897C179.162 583.344 119.967 495.846 45.3394 406.909C-29.2882 317.971 -105.178 244.481 -167.53 197.558C-198.713 174.091 -226.464 157.303 -248.949 148.535C-260.192 144.151 -270.069 141.792 -278.37 141.579C-286.663 141.366 -293.319 143.294 -298.23 147.415C-303.142 151.536 -306.196 157.756 -307.427 165.96C-308.658 174.172 -308.05 184.308 -305.685 196.142C-300.955 219.808 -289.241 250.053 -271.545 284.837C-236.162 354.39 -176.967 441.888 -102.339 530.826C-27.7117 619.764 48.178 693.253 110.53 740.177C141.713 763.644 169.465 780.432 191.949 789.2C203.192 793.584 213.069 795.943 221.37 796.156C229.663 796.369 236.319 794.44 241.23 790.319Z" stroke="#2B2C3B" stroke-width="2"/>
<path opacity="0.689655" d="M268.22 768.946C272.754 764.412 275.255 757.949 275.766 749.67C276.277 741.382 274.788 731.337 271.4 719.755C264.625 696.591 250.32 667.482 229.66 634.372C188.349 568.168 121.753 486.162 39.6584 404.067C-42.4366 321.972 -124.443 255.376 -190.647 214.065C-223.756 193.406 -252.866 179.1 -276.029 172.325C-287.612 168.938 -297.656 167.448 -305.944 167.96C-314.224 168.47 -320.687 170.971 -325.22 175.505C-329.754 180.038 -332.255 186.501 -332.765 194.781C-333.277 203.069 -331.787 213.114 -328.4 224.696C-321.625 247.859 -307.319 276.969 -286.66 310.078C-245.349 376.283 -178.753 458.288 -96.6583 540.384C-14.5632 622.479 67.4427 689.074 133.647 730.385C166.756 751.045 195.866 765.35 219.029 772.125C230.612 775.513 240.656 777.002 248.945 776.491C257.224 775.98 263.687 773.479 268.22 768.946Z" stroke="#2B2C3B" stroke-width="2"/>
<path opacity="0.724138" d="M292.952 745.314C297.073 740.403 299.002 733.746 298.789 725.454C298.576 717.152 296.217 707.276 291.833 696.033C283.065 673.548 266.277 645.796 242.81 614.613C195.886 552.261 122.397 476.372 33.4589 401.744C-55.4788 327.116 -142.977 267.921 -212.53 232.538C-247.314 214.843 -277.559 203.128 -301.225 198.398C-313.058 196.033 -323.195 195.425 -331.407 196.657C-339.61 197.887 -345.831 200.942 -349.952 205.853C-354.073 210.764 -356.001 217.42 -355.788 225.713C-355.575 234.014 -353.216 243.891 -348.832 255.134C-340.064 277.619 -323.276 305.371 -299.809 336.553C-252.886 398.905 -179.396 474.795 -90.4583 549.423C-1.52059 624.05 85.9775 683.245 155.531 718.629C190.314 736.324 220.56 748.038 244.226 752.768C256.059 755.134 266.196 755.742 274.407 754.51C282.611 753.28 288.831 750.225 292.952 745.314Z" stroke="#2B2C3B" stroke-width="2"/>
<path opacity="0.758621" d="M315.238 719.63C318.915 714.378 320.256 707.579 319.321 699.336C318.385 691.085 315.174 681.452 309.827 670.634C299.133 648.999 279.99 622.816 253.894 593.797C201.715 535.772 121.891 466.576 26.7874 399.984C-68.3161 333.391 -160.64 282.048 -233.013 252.861C-269.206 238.264 -300.358 229.231 -324.346 226.581C-336.34 225.256 -346.491 225.534 -354.564 227.477C-362.63 229.418 -368.56 233.003 -372.237 238.254C-375.915 243.506 -377.255 250.305 -376.321 258.548C-375.385 266.799 -372.174 276.432 -366.827 287.25C-356.132 308.886 -336.989 335.069 -310.894 364.087C-258.715 422.112 -178.891 491.308 -83.7872 557.9C11.3163 624.493 103.641 675.836 176.013 705.023C212.207 719.62 243.358 728.653 267.346 731.303C279.341 732.628 289.491 732.35 297.565 730.407C305.63 728.467 311.56 724.881 315.238 719.63Z" stroke="#2B2C3B" stroke-width="2"/>
<path opacity="0.793103" d="M334.907 692.113C338.112 686.561 338.856 679.671 337.206 671.541C335.555 663.403 331.516 654.086 325.247 643.775C312.707 623.155 291.355 598.739 262.83 572.106C205.792 518.849 120.241 456.874 19.6954 398.824C-80.8501 340.774 -177.298 297.672 -251.939 274.904C-289.267 263.517 -321.087 257.233 -345.215 256.684C-357.279 256.41 -367.367 257.571 -375.24 260.21C-383.106 262.846 -388.701 266.935 -391.907 272.487C-395.112 278.039 -395.855 284.929 -394.206 293.059C-392.554 301.197 -388.516 310.514 -382.246 320.825C-369.707 341.446 -348.355 365.861 -319.83 392.495C-262.792 445.751 -177.24 507.727 -76.695 565.777C23.8504 623.827 120.298 666.928 194.939 689.697C232.267 701.083 264.087 707.367 288.215 707.916C300.279 708.19 310.367 707.029 318.241 704.39C326.106 701.754 331.701 697.665 334.907 692.113Z" stroke="#2B2C3B" stroke-width="2"/>
<path opacity="0.827586" d="M351.81 663C354.52 657.19 354.66 650.261 352.308 642.306C349.953 634.343 345.118 625.414 337.974 615.689C323.685 596.239 300.286 573.778 269.549 549.732C208.086 501.649 117.459 447.365 12.2364 398.299C-92.9858 349.234 -192.823 314.702 -269.164 298.526C-307.343 290.436 -339.589 286.949 -363.673 288.505C-375.716 289.283 -385.664 291.319 -393.277 294.634C-400.883 297.946 -406.101 302.507 -408.81 308.317C-411.52 314.128 -411.659 321.056 -409.308 329.011C-406.953 336.974 -402.118 345.904 -394.974 355.629C-380.685 375.079 -357.286 397.54 -326.548 421.586C-265.086 469.669 -174.459 523.952 -69.2363 573.018C35.9859 622.084 135.823 656.616 212.164 672.792C250.343 680.882 282.59 684.369 306.673 682.813C318.716 682.035 328.664 679.998 336.277 676.683C343.883 673.372 349.101 668.811 351.81 663Z" stroke="#2B2C3B" stroke-width="2"/>
<path opacity="0.862069" d="M365.819 632.537C368.012 626.513 367.547 619.598 364.511 611.879C361.472 604.151 355.877 595.677 347.912 586.611C331.982 568.481 306.715 548.145 273.998 526.869C208.579 484.326 113.565 438.148 4.46721 398.439C-104.631 358.731 -207.098 333.032 -284.559 323.571C-323.297 318.839 -355.725 318.176 -379.581 321.826C-391.51 323.65 -401.243 326.546 -408.538 330.512C-415.827 334.474 -420.627 339.472 -422.82 345.496C-425.012 351.521 -424.548 358.435 -421.512 366.155C-418.472 373.882 -412.877 382.357 -404.912 391.422C-388.983 409.552 -363.715 429.889 -330.999 451.165C-265.579 493.708 -170.566 539.886 -61.4677 579.594C47.6305 619.303 150.098 645.002 227.558 654.463C266.296 659.194 298.724 659.857 322.581 656.208C334.509 654.383 344.242 651.488 351.538 647.522C358.826 643.56 363.626 638.562 365.819 632.537Z" stroke="#2B2C3B" stroke-width="2"/>
<path opacity="0.896552" d="M376.828 600.982C378.487 594.789 377.421 587.942 373.724 580.516C370.023 573.083 363.71 565.128 354.986 556.792C337.537 540.119 310.593 522.062 276.147 503.719C207.268 467.039 108.592 429.318 -3.55233 399.269C-115.696 369.22 -220.013 352.549 -298.003 349.875C-337.007 348.538 -369.369 350.704 -392.817 356.419C-404.541 359.276 -413.985 363.009 -420.907 367.595C-427.822 372.178 -432.168 377.575 -433.828 383.768C-435.487 389.96 -434.421 396.808 -430.724 404.234C-427.023 411.667 -420.71 419.621 -411.986 427.958C-394.537 444.631 -367.593 462.688 -333.147 481.031C-264.268 517.711 -165.592 555.432 -53.4477 585.481C58.6962 615.53 163.013 632.2 241.003 634.874C280.007 636.212 312.369 634.046 335.817 628.331C347.541 625.474 356.985 621.741 363.907 617.154C370.822 612.572 375.168 607.175 376.828 600.982Z" stroke="#2B2C3B" stroke-width="2"/>
<path opacity="0.931035" d="M384.751 568.601C385.864 562.287 384.206 555.558 379.875 548.483C375.54 541.401 368.559 534.027 359.141 526.482C340.305 511.394 311.89 495.754 275.976 480.482C204.163 449.946 102.574 420.968 -11.7621 400.807C-126.098 380.647 -231.471 373.132 -309.398 377.265C-348.369 379.332 -380.419 384.31 -403.28 392.047C-414.71 395.915 -423.793 400.457 -430.289 405.629C-436.778 410.797 -440.638 416.552 -441.751 422.866C-442.864 429.18 -441.206 435.909 -436.875 442.984C-432.54 450.066 -425.559 457.44 -416.141 464.985C-397.305 480.073 -368.89 495.713 -332.976 510.985C-261.163 541.521 -159.574 570.499 -45.2381 590.66C69.098 610.82 174.471 618.335 252.397 614.202C291.369 612.135 323.419 607.157 346.28 599.42C357.71 595.552 366.793 591.01 373.289 585.838C379.778 580.67 383.638 574.914 384.751 568.601Z" stroke="#2B2C3B" stroke-width="2"/>
<path opacity="0.965517" d="M389.529 535.664C390.088 529.277 387.849 522.718 382.919 516.047C377.983 509.37 370.385 502.632 360.345 495.937C340.266 482.548 310.596 469.444 273.488 457.361C199.287 433.199 95.5589 413.186 -20.0992 403.067C-135.757 392.948 -241.384 394.645 -318.654 405.555C-357.297 411.011 -388.792 418.763 -410.891 428.463C-421.941 433.313 -430.593 438.629 -436.613 444.348C-442.627 450.061 -445.971 456.131 -446.529 462.518C-447.088 468.905 -444.85 475.463 -439.919 482.134C-434.983 488.812 -427.386 495.549 -417.346 502.244C-397.267 515.634 -367.597 528.737 -330.488 540.821C-256.287 564.982 -152.559 584.996 -36.9012 595.114C78.7569 605.233 184.384 603.536 261.654 592.626C300.297 587.17 331.791 579.418 353.89 569.719C364.94 564.869 373.592 559.553 379.613 553.834C385.627 548.12 388.97 542.05 389.529 535.664Z" stroke="#2B2C3B" stroke-width="2"/>
<path d="M391.126 502.45C391.126 496.039 388.325 489.7 382.831 483.484C377.332 477.262 369.176 471.213 358.591 465.418C337.422 453.83 306.722 443.362 268.702 434.558C192.677 416.956 87.6001 406.059 -28.4998 406.059C-144.6 406.059 -249.677 416.956 -325.702 434.558C-363.722 443.362 -394.421 453.83 -415.591 465.418C-426.176 471.213 -434.332 477.262 -439.831 483.484C-445.324 489.7 -448.126 496.039 -448.126 502.45C-448.126 508.861 -445.324 515.199 -439.831 521.415C-434.332 527.637 -426.176 533.687 -415.591 539.481C-394.421 551.07 -363.722 561.538 -325.702 570.341C-249.677 587.943 -144.6 598.84 -28.4998 598.84C87.6001 598.84 192.677 587.943 268.702 570.341C306.722 561.538 337.422 551.07 358.591 539.481C369.176 533.687 377.332 527.637 382.831 521.415C388.325 515.199 391.126 508.861 391.126 502.45Z" stroke="#2B2C3B" stroke-width="2"/>
</g>
</svg>
