<svg width="510" height="884" viewBox="0 0 510 884" fill="none" xmlns="http://www.w3.org/2000/svg">
<g opacity="0.5">
<path opacity="0.0344828" d="M110.048 678.149C114.169 683.06 120.389 686.115 128.593 687.346C136.805 688.577 146.941 687.969 158.775 685.604C182.441 680.874 212.686 669.16 247.47 651.464C317.023 616.081 404.521 556.886 493.459 482.258C582.396 407.631 655.886 331.741 702.81 269.389C726.276 238.206 743.065 210.454 751.832 187.969C756.217 176.726 758.576 166.85 758.789 158.549C759.002 150.256 757.073 143.6 752.952 138.688C748.831 133.777 742.611 130.722 734.407 129.492C726.195 128.26 716.059 128.869 704.226 131.234C680.56 135.964 650.314 147.678 615.53 165.373C545.977 200.757 458.479 259.952 369.542 334.579C280.604 409.207 207.114 485.097 160.191 547.449C136.724 578.631 119.936 606.383 111.168 628.868C106.784 640.111 104.425 649.988 104.212 658.289C103.999 666.582 105.927 673.238 110.048 678.149Z" stroke="#2B2C3B" stroke-width="2"/>
<path opacity="0.0689655" d="M134.78 708.496C139.313 713.03 145.776 715.531 154.056 716.041C162.344 716.553 172.388 715.063 183.971 711.676C207.134 704.901 236.244 690.595 269.353 669.936C335.557 628.625 417.563 562.029 499.658 479.934C581.753 397.839 648.349 315.833 689.66 249.629C710.32 216.519 724.625 187.41 731.4 164.246C734.787 152.664 736.277 142.619 735.765 134.331C735.255 126.052 732.754 119.589 728.22 115.055C723.687 110.522 717.224 108.021 708.944 107.51C700.656 106.999 690.612 108.488 679.029 111.876C655.866 118.651 626.756 132.956 593.647 153.616C527.443 194.927 445.437 261.522 363.342 343.617C281.247 425.713 214.651 507.718 173.34 573.923C152.68 607.032 138.375 636.142 131.6 659.305C128.212 670.887 126.723 680.932 127.234 689.22C127.745 697.5 130.246 703.963 134.78 708.496Z" stroke="#2B2C3B" stroke-width="2"/>
<path opacity="0.103448" d="M161.77 736.587C166.681 740.708 173.337 742.636 181.63 742.423C189.931 742.21 199.808 739.851 211.051 735.467C233.536 726.699 261.287 709.911 292.47 686.444C354.822 639.52 430.712 566.031 505.339 477.093C579.967 388.155 639.162 300.657 674.545 231.104C692.241 196.32 703.955 166.075 708.685 142.409C711.05 130.576 711.659 120.439 710.427 112.227C709.196 104.024 706.142 97.8033 701.23 93.6823C696.319 89.5613 689.663 87.6331 681.37 87.8459C673.069 88.0589 663.192 90.418 651.949 94.8021C629.465 103.57 601.713 120.358 570.53 143.825C508.178 190.749 432.288 264.238 357.661 353.176C283.033 442.114 223.838 529.612 188.455 599.165C170.759 633.948 159.045 664.194 154.315 687.86C151.95 699.693 151.342 709.83 152.573 718.042C153.804 726.245 156.858 732.466 161.77 736.587Z" stroke="#2B2C3B" stroke-width="2"/>
<path opacity="0.137931" d="M190.812 762.23C196.064 765.908 202.863 767.248 211.106 766.314C219.357 765.378 228.99 762.167 239.808 756.82C261.443 746.125 287.626 726.982 316.645 700.887C374.67 648.708 443.866 568.884 510.458 473.78C577.05 378.677 628.394 286.352 657.581 213.98C672.178 177.786 681.211 146.635 683.861 122.647C685.185 110.653 684.908 100.502 682.965 92.4283C681.024 84.3632 677.439 78.4327 672.187 74.7555C666.936 71.0782 660.137 69.7375 651.894 70.6722C643.643 71.6079 634.01 74.8188 623.192 80.1662C601.556 90.8604 575.373 110.003 546.355 136.099C488.33 188.278 419.134 268.102 352.541 363.206C285.949 458.309 234.606 550.633 205.419 623.006C190.822 659.199 181.789 690.351 179.139 714.339C177.814 726.333 178.092 736.484 180.035 744.557C181.975 752.623 185.561 758.553 190.812 762.23Z" stroke="#2B2C3B" stroke-width="2"/>
<path opacity="0.172414" d="M221.687 785.258C227.239 788.463 234.129 789.206 242.259 787.557C250.397 785.905 259.714 781.867 270.025 775.597C290.646 763.058 315.061 741.706 341.695 713.181C394.951 656.143 456.927 570.591 514.977 470.046C573.026 369.501 616.128 273.053 638.896 198.412C650.283 161.084 656.567 129.264 657.116 105.136C657.39 93.0717 656.229 82.9836 653.59 75.1103C650.954 67.245 646.865 61.6496 641.313 58.4441C635.761 55.2385 628.871 54.4954 620.741 56.145C612.603 57.7962 603.286 61.8346 592.975 68.1044C572.354 80.6436 547.939 101.996 521.305 130.521C468.049 187.559 406.073 273.11 348.023 373.656C289.973 474.201 246.872 570.649 224.104 645.29C212.717 682.618 206.433 714.438 205.884 738.566C205.61 750.63 206.771 760.718 209.41 768.591C212.046 776.457 216.135 782.052 221.687 785.258Z" stroke="#2B2C3B" stroke-width="2"/>
<path opacity="0.206897" d="M254.158 805.519C259.969 808.229 266.897 808.369 274.852 806.017C282.816 803.663 291.745 798.828 301.47 791.683C320.92 777.394 343.381 753.995 367.427 723.258C415.51 661.795 469.794 571.168 518.859 465.946C567.925 360.723 602.457 260.886 618.633 184.545C626.723 146.366 630.21 114.12 628.654 90.0359C627.876 77.9935 625.84 68.0451 622.524 60.4318C619.213 52.8261 614.652 47.6084 608.842 44.8989C603.031 42.1894 596.103 42.0497 588.148 44.4016C580.185 46.7558 571.255 51.5908 561.53 58.7355C542.08 73.0241 519.619 96.4229 495.573 127.161C447.49 188.623 393.207 279.251 344.141 384.473C295.075 489.695 260.543 589.533 244.367 665.873C236.277 704.052 232.79 736.299 234.346 760.382C235.124 772.425 237.16 782.373 240.476 789.987C243.787 797.592 248.348 802.81 254.158 805.519Z" stroke="#2B2C3B" stroke-width="2"/>
<path opacity="0.241379" d="M287.979 822.888C294.004 825.081 300.918 824.616 308.638 821.58C316.366 818.541 324.84 812.946 333.905 804.981C352.035 789.051 372.372 763.784 393.648 731.067C436.191 665.648 482.369 570.634 522.077 461.536C561.786 352.438 587.485 249.971 596.946 172.51C601.677 133.772 602.34 101.344 598.691 77.4877C596.866 65.5589 593.971 55.8258 590.005 48.5304C586.043 41.2423 581.045 36.4419 575.02 34.2492C568.996 32.0564 562.082 32.5211 554.362 35.5573C546.634 38.5966 538.16 44.1915 529.094 52.1566C510.964 68.086 490.628 93.3534 469.352 126.07C426.809 191.489 380.631 286.503 340.922 395.601C301.214 504.699 275.515 607.167 266.054 684.627C261.322 723.365 260.659 755.793 264.309 779.65C266.133 791.578 269.029 801.311 272.995 808.607C276.957 815.895 281.955 820.695 287.979 822.888Z" stroke="#2B2C3B" stroke-width="2"/>
<path opacity="0.275862" d="M322.893 837.252C329.085 838.912 335.933 837.846 343.359 834.149C350.792 830.447 358.746 824.135 367.083 815.41C383.756 797.961 401.813 771.018 420.156 736.571C456.836 667.693 494.557 569.016 524.606 456.872C554.655 344.729 571.325 240.411 573.999 162.421C575.337 123.418 573.171 91.0558 567.456 67.6082C564.599 55.8838 560.866 46.4401 556.279 39.5181C551.697 32.6031 546.3 28.2566 540.107 26.5972C533.914 24.9379 527.067 26.0034 519.641 29.7009C512.208 33.4022 504.253 39.7144 495.917 48.4392C479.244 65.8881 461.187 92.8318 442.844 127.278C406.164 196.157 368.443 294.833 338.394 406.977C308.345 519.121 291.674 623.438 289.001 701.428C287.663 740.432 289.829 772.794 295.544 796.241C298.401 807.966 302.134 817.409 306.721 824.331C311.303 831.246 316.7 835.593 322.893 837.252Z" stroke="#2B2C3B" stroke-width="2"/>
<path opacity="0.310345" d="M358.633 848.534C364.946 849.647 371.675 847.989 378.75 843.658C385.833 839.323 393.207 832.342 400.751 822.924C415.84 804.088 431.48 775.673 446.751 739.759C477.288 667.946 506.266 566.357 526.426 452.021C546.587 337.685 554.102 232.312 549.968 154.385C547.901 115.414 542.923 83.3637 535.187 60.5033C531.318 49.0727 526.777 39.9902 521.604 33.4943C516.437 27.005 510.681 23.1454 504.367 22.0321C498.054 20.9188 491.325 22.5771 484.25 26.9077C477.167 31.2427 469.793 38.2242 462.249 47.6424C447.16 66.4781 431.52 94.893 416.249 130.807C385.712 202.62 356.734 304.209 336.574 418.545C316.413 532.881 308.898 638.254 313.032 716.181C315.099 755.152 320.077 787.202 327.813 810.063C331.682 821.493 336.223 830.576 341.396 837.072C346.563 843.561 352.319 847.421 358.633 848.534Z" stroke="#2B2C3B" stroke-width="2"/>
<path opacity="0.344828" d="M394.927 856.67C401.314 857.229 407.873 854.991 414.543 850.06C421.221 845.124 427.959 837.527 434.654 827.487C448.043 807.408 461.147 777.738 473.23 740.629C497.392 666.428 517.405 562.7 527.524 447.042C537.643 331.384 535.945 225.757 525.036 148.487C519.58 109.844 511.827 78.3499 502.128 56.2508C497.278 45.2008 491.962 36.5487 486.243 30.5284C480.53 24.5141 474.46 21.1708 468.073 20.6121C461.686 20.0533 455.128 22.2917 448.457 27.2225C441.779 32.1583 435.042 39.7559 428.347 49.7958C414.957 69.8748 401.853 99.5447 389.77 136.653C365.609 210.854 345.595 314.582 335.477 430.24C325.358 545.898 327.055 651.525 337.964 728.795C343.42 767.438 351.173 798.933 360.872 821.032C365.722 832.082 371.038 840.734 376.757 846.754C382.47 852.768 388.541 856.112 394.927 856.67Z" stroke="#2B2C3B" stroke-width="2"/>
<path opacity="0.37931" d="M431.5 861.627C437.911 861.627 444.25 858.825 450.466 853.332C456.688 847.833 462.737 839.677 468.532 829.092C480.12 807.922 490.588 777.223 499.391 739.203C516.994 663.178 527.891 558.101 527.891 442.001C527.891 325.901 516.994 220.824 499.391 144.799C490.588 106.778 480.12 76.0794 468.532 54.9098C462.737 44.3245 456.688 36.1687 450.466 30.6697C444.25 25.1762 437.911 22.3748 431.5 22.3748C425.089 22.3748 418.751 25.1762 412.535 30.6697C406.313 36.1687 400.263 44.3245 394.469 54.9098C382.88 76.0794 372.412 106.778 363.609 144.799C346.006 220.824 335.11 325.901 335.11 442.001C335.11 558.101 346.006 663.178 363.609 739.203C372.412 777.223 382.88 807.922 394.469 829.092C400.263 839.677 406.313 847.833 412.535 853.332C418.751 858.825 425.089 861.627 431.5 861.627Z" stroke="#2B2C3B" stroke-width="2"/>
<path opacity="0.413793" d="M468.073 863.389C474.46 862.83 480.53 859.487 486.243 853.473C491.962 847.452 497.278 838.8 502.128 827.75C511.828 805.651 519.58 774.157 525.036 735.514C535.946 658.244 537.643 552.617 527.524 436.959C517.405 321.301 497.392 217.573 473.23 143.372C461.147 106.263 448.043 76.5935 434.654 56.5145C427.959 46.4745 421.221 38.877 414.544 33.9412C407.873 29.0104 401.314 26.772 394.927 27.3308C388.541 27.8895 382.471 31.2328 376.757 37.2471C371.038 43.2674 365.722 51.9195 360.872 62.9695C351.173 85.0686 343.42 116.563 337.965 155.206C327.055 232.476 325.358 338.103 335.477 453.761C345.595 569.419 365.609 673.147 389.77 747.348C401.854 784.456 414.957 814.126 428.347 834.205C435.042 844.245 441.779 851.843 448.457 856.779C455.128 861.709 461.686 863.948 468.073 863.389Z" stroke="#2B2C3B" stroke-width="2"/>
<path opacity="0.448276" d="M504.368 861.969C510.681 860.856 516.437 856.996 521.604 850.507C526.777 844.011 531.319 834.929 535.187 823.498C542.923 800.638 547.901 768.587 549.969 729.616C554.102 651.69 546.587 546.316 526.426 431.98C506.266 317.644 477.288 216.056 446.752 144.243C431.48 108.328 415.84 79.9135 400.752 61.0778C393.207 51.6596 385.833 44.6782 378.751 40.3432C371.675 36.0125 364.947 34.3543 358.633 35.4675C352.319 36.5808 346.564 40.4404 341.396 46.9298C336.224 53.4257 331.682 62.5081 327.814 73.9388C320.077 96.7991 315.099 128.849 313.032 167.821C308.898 245.747 316.414 351.12 336.574 465.456C356.735 579.793 385.712 681.381 416.249 753.194C431.521 789.108 447.16 817.523 462.249 836.359C469.794 845.777 477.168 852.759 484.25 857.094C491.325 861.424 498.054 863.083 504.368 861.969Z" stroke="#2B2C3B" stroke-width="2"/>
<path opacity="0.482759" d="M540.107 857.403C546.3 855.743 551.697 851.397 556.28 844.482C560.866 837.56 564.599 828.116 567.456 816.392C573.171 792.944 575.337 760.582 574 721.579C571.326 643.589 554.655 539.271 524.606 427.128C494.557 314.984 456.836 216.307 420.157 147.429C401.813 112.982 383.756 86.0385 367.083 68.5896C358.747 59.8648 350.792 53.5526 343.359 49.8513C335.933 46.1538 329.086 45.0883 322.893 46.7476C316.7 48.407 311.303 52.7535 306.721 59.6685C302.134 66.5905 298.401 76.0343 295.544 87.7586C289.829 111.206 287.664 143.568 289.001 182.572C291.675 260.562 308.345 364.879 338.394 477.023C368.443 589.167 406.164 687.843 442.844 756.722C461.187 791.168 479.244 818.112 495.917 835.561C504.254 844.286 512.208 850.598 519.641 854.299C527.067 857.997 533.915 859.062 540.107 857.403Z" stroke="#2B2C3B" stroke-width="2"/>
<path opacity="0.517241" d="M575.021 849.754C581.045 847.561 586.043 842.76 590.005 835.472C593.971 828.177 596.867 818.444 598.691 806.515C602.341 782.659 601.678 750.231 596.946 711.492C587.485 634.032 561.786 531.565 522.078 422.467C482.369 313.368 436.191 218.355 393.648 152.936C372.372 120.219 352.036 94.9515 333.906 79.0221C324.84 71.0571 316.366 65.4621 308.638 62.4229C300.919 59.3866 294.004 58.922 287.98 61.1147C281.955 63.3074 276.957 68.1078 272.995 75.3959C269.029 82.6913 266.134 92.4245 264.309 104.353C260.66 128.21 261.323 160.638 266.054 199.376C275.515 276.836 301.214 379.303 340.923 488.402C380.631 597.5 426.809 692.513 469.352 757.933C490.628 790.649 510.965 815.917 529.095 831.846C538.16 839.811 546.635 845.406 554.362 848.445C562.082 851.482 568.996 851.946 575.021 849.754Z" stroke="#2B2C3B" stroke-width="2"/>
<path opacity="0.551724" d="M608.841 839.102C614.652 836.392 619.213 831.175 622.524 823.569C625.839 815.956 627.875 806.007 628.654 793.965C630.21 769.881 626.723 737.634 618.633 699.456C602.457 623.115 567.925 523.277 518.859 418.055C469.793 312.833 415.51 222.206 367.427 160.743C343.381 130.005 320.92 106.607 301.47 92.3179C291.745 85.1733 282.815 80.3382 274.852 77.984C266.897 75.6322 259.969 75.7719 254.158 78.4813C248.348 81.1908 243.787 86.4086 240.475 94.0142C237.16 101.628 235.124 111.576 234.346 123.618C232.79 147.702 236.277 179.949 244.367 218.127C260.543 294.468 295.075 394.306 344.14 499.528C393.206 604.75 447.49 695.377 495.573 756.84C519.619 787.578 542.08 810.977 561.53 825.265C571.255 832.41 580.184 837.245 588.147 839.599C596.102 841.951 603.031 841.811 608.841 839.102Z" stroke="#2B2C3B" stroke-width="2"/>
<path opacity="0.586207" d="M641.313 825.557C646.865 822.351 650.954 816.756 653.59 808.891C656.229 801.017 657.39 790.929 657.116 778.865C656.567 754.737 650.283 722.917 638.897 685.589C616.129 610.948 573.027 514.5 514.977 413.955C456.927 313.41 394.951 227.858 341.695 170.82C315.061 142.295 290.646 120.943 270.025 108.404C259.714 102.134 250.397 98.0957 242.259 96.4444C234.129 94.7949 227.239 95.5379 221.687 98.7435C216.135 101.949 212.046 107.544 209.41 115.41C206.771 123.283 205.61 133.371 205.884 145.435C206.433 169.563 212.717 201.383 224.104 238.711C246.872 313.352 289.974 409.8 348.024 510.345C406.074 610.891 468.049 696.442 521.306 753.48C547.94 782.005 572.355 803.357 592.975 815.897C603.286 822.166 612.603 826.205 620.741 827.856C628.871 829.506 635.761 828.763 641.313 825.557Z" stroke="#2B2C3B" stroke-width="2"/>
<path opacity="0.62069" d="M672.187 809.245C677.439 805.568 681.024 799.638 682.965 791.572C684.908 783.499 685.185 773.348 683.861 761.354C681.211 737.366 672.178 706.214 657.581 670.021C628.394 597.648 577.05 505.324 510.458 410.221C443.866 315.117 374.67 235.293 316.645 183.114C287.626 157.018 261.443 137.875 239.808 127.181C228.99 121.834 219.357 118.623 211.106 117.687C202.863 116.752 196.064 118.093 190.812 121.77C185.561 125.448 181.975 131.378 180.035 139.443C178.092 147.517 177.814 157.667 179.139 169.662C181.789 193.65 190.822 224.801 205.419 260.995C234.606 333.367 285.949 425.692 352.541 520.795C419.134 615.899 488.33 695.723 546.355 747.902C575.373 773.997 601.556 793.14 623.192 803.835C634.01 809.182 643.643 812.393 651.894 813.329C660.137 814.263 666.936 812.923 672.187 809.245Z" stroke="#2B2C3B" stroke-width="2"/>
<path opacity="0.655172" d="M701.23 790.319C706.142 786.198 709.196 779.978 710.427 771.774C711.659 763.562 711.05 753.426 708.685 741.593C703.955 717.927 692.241 687.681 674.545 652.897C639.162 583.344 579.967 495.846 505.339 406.909C430.712 317.971 354.822 244.481 292.47 197.558C261.287 174.091 233.536 157.303 211.051 148.535C199.808 144.151 189.931 141.792 181.63 141.579C173.337 141.366 166.681 143.294 161.77 147.415C156.859 151.536 153.804 157.756 152.573 165.96C151.342 174.172 151.95 184.308 154.315 196.142C159.045 219.808 170.759 250.053 188.455 284.837C223.838 354.39 283.033 441.888 357.661 530.826C432.288 619.764 508.178 693.253 570.53 740.177C601.713 763.644 629.465 780.432 651.95 789.2C663.192 793.584 673.069 795.943 681.37 796.156C689.663 796.369 696.319 794.44 701.23 790.319Z" stroke="#2B2C3B" stroke-width="2"/>
<path opacity="0.689655" d="M728.22 768.946C732.754 764.412 735.255 757.949 735.766 749.67C736.277 741.382 734.788 731.337 731.4 719.755C724.625 696.591 710.32 667.482 689.66 634.372C648.349 568.168 581.753 486.162 499.658 404.067C417.563 321.972 335.557 255.376 269.353 214.065C236.244 193.406 207.134 179.1 183.971 172.325C172.388 168.938 162.344 167.448 154.056 167.96C145.776 168.47 139.313 170.971 134.78 175.505C130.246 180.038 127.745 186.501 127.235 194.781C126.723 203.069 128.213 213.114 131.6 224.696C138.375 247.859 152.681 276.969 173.34 310.078C214.651 376.283 281.247 458.288 363.342 540.384C445.437 622.479 527.443 689.074 593.647 730.385C626.756 751.045 655.866 765.35 679.029 772.125C690.612 775.513 700.656 777.002 708.945 776.491C717.224 775.98 723.687 773.479 728.22 768.946Z" stroke="#2B2C3B" stroke-width="2"/>
<path opacity="0.724138" d="M752.952 745.314C757.073 740.403 759.002 733.746 758.789 725.454C758.576 717.152 756.217 707.276 751.833 696.033C743.065 673.548 726.277 645.796 702.81 614.613C655.886 552.261 582.397 476.372 493.459 401.744C404.521 327.116 317.023 267.921 247.47 232.538C212.686 214.843 182.441 203.128 158.775 198.398C146.942 196.033 136.805 195.425 128.593 196.657C120.39 197.887 114.169 200.942 110.048 205.853C105.927 210.764 103.999 217.42 104.212 225.713C104.425 234.014 106.784 243.891 111.168 255.134C119.936 277.619 136.724 305.371 160.191 336.553C207.114 398.905 280.604 474.795 369.542 549.423C458.479 624.05 545.978 683.245 615.531 718.629C650.314 736.324 680.56 748.038 704.226 752.768C716.059 755.134 726.196 755.742 734.407 754.51C742.611 753.28 748.831 750.225 752.952 745.314Z" stroke="#2B2C3B" stroke-width="2"/>
<path opacity="0.758621" d="M775.238 719.63C778.915 714.378 780.256 707.579 779.321 699.336C778.385 691.085 775.174 681.452 769.827 670.634C759.133 648.999 739.99 622.816 713.894 593.797C661.715 535.772 581.891 466.576 486.787 399.984C391.684 333.391 299.36 282.048 226.987 252.861C190.794 238.264 159.642 229.231 135.654 226.581C123.66 225.256 113.509 225.534 105.436 227.477C97.3704 229.418 91.4399 233.003 87.7627 238.254C84.0854 243.506 82.7447 250.305 83.6794 258.548C84.6151 266.799 87.826 276.432 93.1734 287.25C103.868 308.886 123.011 335.069 149.106 364.087C201.285 422.112 281.109 491.308 376.213 557.9C471.316 624.493 563.641 675.836 636.013 705.023C672.207 719.62 703.358 728.653 727.346 731.303C739.341 732.628 749.491 732.35 757.565 730.407C765.63 728.467 771.56 724.881 775.238 719.63Z" stroke="#2B2C3B" stroke-width="2"/>
<path opacity="0.793103" d="M794.907 692.113C798.112 686.561 798.855 679.671 797.206 671.541C795.555 663.403 791.516 654.086 785.246 643.775C772.707 623.155 751.355 598.739 722.83 572.106C665.792 518.849 580.241 456.874 479.695 398.824C379.15 340.774 282.702 297.672 208.061 274.904C170.733 263.517 138.913 257.233 114.785 256.684C102.721 256.41 92.6329 257.571 84.7596 260.21C76.8943 262.846 71.2989 266.935 68.0933 272.487C64.8878 278.039 64.1447 284.929 65.7943 293.059C67.4455 301.197 71.4839 310.514 77.7537 320.825C90.2929 341.446 111.645 365.861 140.17 392.495C197.208 445.751 282.759 507.727 383.305 565.777C483.85 623.827 580.298 666.928 654.939 689.697C692.267 701.083 724.087 707.367 748.215 707.916C760.279 708.19 770.367 707.029 778.241 704.39C786.106 701.754 791.701 697.665 794.907 692.113Z" stroke="#2B2C3B" stroke-width="2"/>
<path opacity="0.827586" d="M811.81 663C814.52 657.19 814.66 650.261 812.308 642.306C809.954 634.343 805.119 625.414 797.974 615.689C783.685 596.239 760.286 573.778 729.549 549.732C668.086 501.649 577.459 447.365 472.236 398.299C367.014 349.234 267.177 314.702 190.836 298.526C152.657 290.436 120.411 286.949 96.3268 288.505C84.2845 289.283 74.3361 291.319 66.7227 294.634C59.1171 297.946 53.8993 302.507 51.1899 308.317C48.4804 314.128 48.3407 321.056 50.6925 329.011C53.0467 336.974 57.8818 345.904 65.0264 355.629C79.315 375.079 102.714 397.54 133.452 421.586C194.914 469.669 285.542 523.952 390.764 573.018C495.986 622.084 595.823 656.616 672.164 672.792C710.343 680.882 742.59 684.369 766.673 682.813C778.716 682.035 788.664 679.998 796.278 676.683C803.883 673.372 809.101 668.811 811.81 663Z" stroke="#2B2C3B" stroke-width="2"/>
<path opacity="0.862069" d="M825.819 632.537C828.012 626.513 827.547 619.598 824.511 611.879C821.472 604.151 815.877 595.677 807.912 586.611C791.982 568.481 766.715 548.145 733.998 526.869C668.579 484.326 573.565 438.148 464.467 398.439C355.369 358.731 252.902 333.032 175.441 323.571C136.703 318.839 104.275 318.176 80.4188 321.826C68.49 323.65 58.7569 326.546 51.4615 330.512C44.1734 334.474 39.373 339.472 37.1803 345.496C34.9875 351.521 35.4522 358.435 38.4884 366.155C41.5277 373.882 47.1226 382.357 55.0877 391.422C71.0171 409.552 96.2845 429.889 129.001 451.165C194.421 493.708 289.434 539.886 398.532 579.594C507.63 619.303 610.098 645.002 687.558 654.463C726.296 659.194 758.724 659.857 782.581 656.208C794.509 654.383 804.242 651.488 811.538 647.522C818.826 643.56 823.626 638.562 825.819 632.537Z" stroke="#2B2C3B" stroke-width="2"/>
<path opacity="0.896552" d="M836.828 600.982C838.487 594.789 837.421 587.942 833.724 580.516C830.023 573.083 823.71 565.128 814.986 556.792C797.537 540.119 770.593 522.062 736.147 503.719C667.268 467.039 568.592 429.318 456.448 399.269C344.304 369.22 239.987 352.549 161.997 349.876C122.993 348.538 90.631 350.704 67.1834 356.419C55.459 359.276 46.0153 363.009 39.0933 367.595C32.1783 372.178 27.8318 377.575 26.1724 383.768C24.5131 389.96 25.5786 396.808 29.2761 404.234C32.9773 411.667 39.2896 419.621 48.0144 427.958C65.4633 444.631 92.407 462.688 126.853 481.031C195.732 517.711 294.408 555.432 406.552 585.481C518.696 615.53 623.013 632.2 701.003 634.874C740.007 636.212 772.369 634.046 795.817 628.331C807.541 625.474 816.985 621.741 823.907 617.154C830.822 612.572 835.168 607.175 836.828 600.982Z" stroke="#2B2C3B" stroke-width="2"/>
<path opacity="0.931035" d="M844.751 568.601C845.864 562.287 844.206 555.558 839.875 548.483C835.54 541.401 828.559 534.027 819.141 526.482C800.305 511.394 771.89 495.754 735.976 480.482C664.163 449.946 562.574 420.968 448.238 400.807C333.902 380.647 228.529 373.132 150.602 377.265C111.631 379.332 79.5806 384.31 56.7203 392.047C45.2897 395.915 36.2072 400.457 29.7113 405.629C23.222 410.797 19.3624 416.552 18.2491 422.866C17.1358 429.18 18.7941 435.909 23.1247 442.984C27.4597 450.066 34.4411 457.44 43.8594 464.985C62.695 480.073 91.1099 495.713 127.024 510.985C198.837 541.521 300.426 570.499 414.762 590.66C529.098 610.82 634.471 618.335 712.398 614.202C751.369 612.135 783.419 607.157 806.28 599.42C817.71 595.552 826.793 591.01 833.289 585.838C839.778 580.67 843.638 574.915 844.751 568.601Z" stroke="#2B2C3B" stroke-width="2"/>
<path opacity="0.965517" d="M849.529 535.664C850.088 529.277 847.849 522.718 842.919 516.047C837.983 509.37 830.385 502.632 820.345 495.937C800.266 482.548 770.596 469.444 733.488 457.361C659.287 433.199 555.559 413.186 439.901 403.067C324.243 392.948 218.616 394.645 141.346 405.555C102.703 411.011 71.2085 418.763 49.1094 428.463C38.0594 433.313 29.4073 438.629 23.387 444.348C17.3727 450.061 14.0294 456.131 13.4707 462.518C12.9119 468.905 15.1503 475.463 20.0811 482.134C25.0169 488.812 32.6144 495.549 42.6544 502.244C62.7334 515.634 92.4033 528.737 129.512 540.821C203.713 564.982 307.441 584.996 423.099 595.114C538.757 605.233 644.384 603.536 721.654 592.626C760.297 587.171 791.791 579.418 813.89 569.719C824.94 564.869 833.592 559.553 839.613 553.834C845.627 548.12 848.97 542.05 849.529 535.664Z" stroke="#2B2C3B" stroke-width="2"/>
<path d="M851.126 502.45C851.126 496.038 848.325 489.7 842.831 483.484C837.332 477.262 829.176 471.213 818.591 465.418C797.422 453.829 766.722 443.362 728.702 434.558C652.677 416.956 547.6 406.059 431.5 406.059C315.4 406.059 210.323 416.956 134.298 434.558C96.2779 443.362 65.5789 453.829 44.4093 465.418C33.8241 471.213 25.6682 477.262 20.1692 483.484C14.6758 489.7 11.8743 496.038 11.8743 502.45C11.8743 508.861 14.6758 515.199 20.1692 521.415C25.6682 527.637 33.8241 533.687 44.4093 539.481C65.5789 551.07 96.2779 561.538 134.298 570.341C210.323 587.943 315.4 598.84 431.5 598.84C547.6 598.84 652.677 587.943 728.702 570.341C766.722 561.538 797.422 551.07 818.591 539.481C829.176 533.687 837.332 527.637 842.831 521.415C848.325 515.199 851.126 508.861 851.126 502.45Z" stroke="#2B2C3B" stroke-width="2"/>
</g>
</svg>
